<svg id="visual" viewBox="0 0 900 675" width="900" height="675" xmlns="http://www.w3.org/2000/svg" xmlns:xlink="http://www.w3.org/1999/xlink" version="1.1"><g transform="translate(460.1761817024269 301.32077705261605)"><path d="M145 -220.9C202.3 -218 273 -208.3 293.1 -170.3C313.2 -132.3 282.6 -66.2 272.9 -5.6C263.3 55 274.5 110 255.7 150.1C236.9 190.3 187.9 215.5 140.3 238.2C92.7 260.8 46.3 280.9 -5.1 289.7C-56.5 298.5 -113 296.1 -150.5 267.6C-188.1 239.1 -206.6 184.5 -225 135.6C-243.4 86.7 -261.7 43.3 -285.1 -13.5C-308.5 -70.3 -336.9 -140.6 -307.8 -171.1C-278.7 -201.5 -192.1 -192.1 -131.2 -192.9C-70.3 -193.8 -35.2 -204.9 4.3 -212.4C43.8 -219.9 87.7 -223.8 145 -220.9" fill="#3b82f6"></path></g></svg>